<?xml version="1.0" encoding="UTF-8" standalone="no"?>
<!-- Created with Inkscape (http://www.inkscape.org/) -->

<svg
   xmlns:dc="http://purl.org/dc/elements/1.1/"
   xmlns:cc="http://creativecommons.org/ns#"
   xmlns:rdf="http://www.w3.org/1999/02/22-rdf-syntax-ns#"
   xmlns:svg="http://www.w3.org/2000/svg"
   xmlns="http://www.w3.org/2000/svg"
   xmlns:sodipodi="http://sodipodi.sourceforge.net/DTD/sodipodi-0.dtd"
   xmlns:inkscape="http://www.inkscape.org/namespaces/inkscape"
   width="113mm"
   height="131mm"
   viewBox="0 0 113 131"
   version="1.1"
   id="svg4809"
   inkscape:version="0.92.3 (2405546, 2018-03-11)"
   sodipodi:docname="bad_dfs_graph.svg">
  <defs
     id="defs4803" />
  <sodipodi:namedview
     id="base"
     pagecolor="#ffffff"
     bordercolor="#666666"
     borderopacity="1.0"
     inkscape:pageopacity="0.0"
     inkscape:pageshadow="2"
     inkscape:zoom="0.7"
     inkscape:cx="299.2804"
     inkscape:cy="432.4716"
     inkscape:document-units="mm"
     inkscape:current-layer="layer1"
     showgrid="false"
     inkscape:window-width="1920"
     inkscape:window-height="1001"
     inkscape:window-x="-9"
     inkscape:window-y="-9"
     inkscape:window-maximized="1" />
  <metadata
     id="metadata4806">
    <rdf:RDF>
      <cc:Work
         rdf:about="">
        <dc:format>image/svg+xml</dc:format>
        <dc:type
           rdf:resource="http://purl.org/dc/dcmitype/StillImage" />
        <dc:title></dc:title>
      </cc:Work>
    </rdf:RDF>
  </metadata>
  <g
     inkscape:label="Layer 1"
     inkscape:groupmode="layer"
     id="layer1"
     transform="translate(0,-166)">
    <ellipse
       style="fill:#9af667;fill-opacity:1;stroke:#000000;stroke-width:0.38368186;stroke-miterlimit:4;stroke-dasharray:none;stroke-opacity:1"
       id="path4811"
       cx="55.175037"
       cy="182.38539"
       rx="9.2944946"
       ry="6.8101907" />
    <ellipse
       style="fill:#000000;fill-opacity:1;stroke:#000000;stroke-width:0.31432706;stroke-miterlimit:4;stroke-dasharray:none;stroke-opacity:1"
       id="path4811-6"
       cx="14.887113"
       cy="198.0451"
       rx="7.4925709"
       ry="5.6698956" />
    <ellipse
       style="fill:#000000;fill-opacity:1;stroke:#000000;stroke-width:0.31432706;stroke-miterlimit:4;stroke-dasharray:none;stroke-opacity:1"
       id="path4811-0"
       cx="10.956586"
       cy="222.16466"
       rx="7.4925709"
       ry="5.6698956" />
    <ellipse
       style="fill:#000000;fill-opacity:1;stroke:#000000;stroke-width:0.31432706;stroke-miterlimit:4;stroke-dasharray:none;stroke-opacity:1"
       id="path4811-5"
       cx="11.202245"
       cy="247.90419"
       rx="7.4925709"
       ry="5.6698956" />
    <ellipse
       style="fill:#000000;fill-opacity:1;stroke:#000000;stroke-width:0.31432706;stroke-miterlimit:4;stroke-dasharray:none;stroke-opacity:1"
       id="path4811-58"
       cx="14.395802"
       cy="264.28391"
       rx="7.4925709"
       ry="5.6698956" />
    <ellipse
       style="fill:#000000;fill-opacity:1;stroke:#000000;stroke-width:0.31432706;stroke-miterlimit:4;stroke-dasharray:none;stroke-opacity:1"
       id="path4811-8"
       cx="50.998852"
       cy="250.06415"
       rx="7.4925709"
       ry="5.6698956" />
    <ellipse
       style="fill:#000000;fill-opacity:1;stroke:#000000;stroke-width:0.31432706;stroke-miterlimit:4;stroke-dasharray:none;stroke-opacity:1"
       id="path4811-00"
       cx="53.209766"
       cy="268.96381"
       rx="7.4925709"
       ry="5.6698956" />
    <ellipse
       style="fill:#000000;fill-opacity:1;stroke:#000000;stroke-width:0.31432706;stroke-miterlimit:4;stroke-dasharray:none;stroke-opacity:1"
       id="path4811-9"
       cx="98.656517"
       cy="287.86346"
       rx="7.4925709"
       ry="5.6698956" />
    <ellipse
       style="fill:#000000;fill-opacity:1;stroke:#000000;stroke-width:0.31432706;stroke-miterlimit:4;stroke-dasharray:none;stroke-opacity:1"
       id="path4811-4"
       cx="86.864922"
       cy="265.36386"
       rx="7.4925709"
       ry="5.6698956" />
    <ellipse
       style="fill:#000000;fill-opacity:1;stroke:#000000;stroke-width:0.31432706;stroke-miterlimit:4;stroke-dasharray:none;stroke-opacity:1"
       id="path4811-7"
       cx="87.847557"
       cy="233.68445"
       rx="7.4925709"
       ry="5.6698956" />
    <ellipse
       style="fill:#000000;fill-opacity:1;stroke:#000000;stroke-width:0.31432706;stroke-miterlimit:4;stroke-dasharray:none;stroke-opacity:1"
       id="path4811-63"
       cx="82.197426"
       cy="192.46521"
       rx="7.4925709"
       ry="5.6698956" />
    <ellipse
       style="fill:#94fff0;fill-opacity:1;stroke:#000000;stroke-width:0.33168626;stroke-miterlimit:4;stroke-dasharray:none;stroke-opacity:1"
       id="path4811-3"
       cx="73.10807"
       cy="212.71483"
       rx="7.9737473"
       ry="5.9324613" />
    <text
       xml:space="preserve"
       style="font-style:normal;font-weight:normal;font-size:5.88783693px;line-height:1.25;font-family:sans-serif;letter-spacing:0px;word-spacing:0px;fill:#000000;fill-opacity:1;stroke:none;stroke-width:0.14719592"
       x="55.640263"
       y="250.07976"
       id="text5435"
       transform="scale(1.1682432,0.85598617)"><tspan
         sodipodi:role="line"
         id="tspan5433"
         x="55.640263"
         y="250.07976"
         style="stroke-width:0.14719592">Goal</tspan></text>
    <path
       style="fill:none;stroke:#000000;stroke-width:0.25869393;stroke-linecap:butt;stroke-linejoin:miter;stroke-miterlimit:4;stroke-dasharray:none;stroke-opacity:1"
       d="m 46.085683,184.36536 c -0.40943,0 -0.81886,0 -1.22829,0 -0.0819,0 -0.18775,-0.0424 -0.24565,0 -0.15049,0.11026 -0.20914,0.47107 -0.49132,0.53999 -0.15537,0.0379 -0.34484,-0.0537 -0.49132,0 -0.0732,0.0268 0.0579,0.13757 0,0.18 -0.12947,0.0949 -0.33896,0.10558 -0.49131,0.17999 -0.0964,0.0471 -0.1358,0.15317 -0.24566,0.18 -0.15537,0.0379 -0.35505,-0.0666 -0.49132,0 -0.15235,0.0744 -0.11618,0.26513 -0.24565,0.36 -0.12948,0.0949 -0.33897,0.10557 -0.49132,0.17999 -0.0964,0.0471 -0.14208,0.14205 -0.24566,0.18 -0.0732,0.0268 -0.17752,-0.0333 -0.24566,0 -0.19271,0.0941 -0.30603,0.25817 -0.49131,0.35999 -0.14649,0.0805 -0.32755,0.12 -0.49132,0.18 -0.16377,0.12 -0.30603,0.25817 -0.49132,0.35999 -0.29296,0.161 -0.68966,0.199 -0.98263,0.36 -0.18528,0.10182 -0.30603,0.25817 -0.49131,0.35999 -0.14649,0.0805 -0.34484,0.0995 -0.49132,0.17999 -0.27793,0.15274 -0.44791,0.3988 -0.73697,0.54 -0.30471,0.14883 -0.66862,0.22194 -0.98264,0.35999 -0.57675,0.25355 -0.66675,0.37541 -1.22829,0.53999 -0.24042,0.0705 -0.51493,0.0824 -0.73697,0.18 -0.1986,0.0873 -0.29271,0.27268 -0.49132,0.35999 -0.22204,0.0976 -0.49654,0.10953 -0.73697,0.17999 -0.17001,0.0498 -0.31368,0.14746 -0.49132,0.18 -0.15888,0.0291 -0.33243,-0.0291 -0.49131,0 -0.17764,0.0325 -0.32755,0.12 -0.49132,0.18 -0.16377,0.06 -0.33896,0.10558 -0.49132,0.18 -0.0964,0.0471 -0.1493,0.13292 -0.24565,0.17999 -0.3047,0.14884 -0.67793,0.21116 -0.98263,0.36 -0.0964,0.0471 -0.14931,0.13293 -0.24566,0.17999 -0.15235,0.0744 -0.33897,0.10558 -0.49132,0.18 -0.55983,0.27346 0.0685,0.26653 -0.49132,0.53999 -0.13626,0.0666 -0.34483,-0.0537 -0.49131,0 -0.20716,0.0759 -0.32755,0.23999 -0.49132,0.35999 -0.0819,0.06 -0.19387,0.10411 -0.24566,0.18 -0.0366,0.0537 0.0579,0.13757 0,0.18 -0.0579,0.0424 -0.18775,-0.0424 -0.24565,0 -0.0579,0.0424 0.0366,0.12633 0,0.17999 -0.0518,0.0759 -0.16378,0.12 -0.24566,0.18 -0.0819,0.06 -0.14208,0.14205 -0.24566,0.18 -0.0732,0.0268 -0.16377,0 -0.24566,0 -0.16377,0.06 -0.34483,0.0995 -0.49131,0.17999 -0.18529,0.10182 -0.29861,0.26586 -0.49132,0.36 -0.13627,0.0666 -0.34483,-0.0537 -0.49132,0 -0.10357,0.0379 -0.16377,0.11999 -0.24565,0.17999 -0.16378,0.12 -0.32755,0.24 -0.49132,0.36 -0.0819,0.06 -0.1493,0.13292 -0.24566,0.17999 -0.15235,0.0744 -0.31368,0.14746 -0.491315,0.18 -0.158882,0.0291 -0.35505,-0.0666 -0.491315,0 -0.152352,0.0744 -0.144091,0.24836 -0.24566,0.35999 -0.06424,0.0706 -0.163771,0.12 -0.245657,0.18 -0.08189,0.06 -0.135796,0.15316 -0.245658,0.18 -1.392063,0 -0.08189,-0.12 -0.491316,0.17999 -0.0579,0.0424 -0.167974,-0.019 -0.245658,0 -0.173707,0.0424 -0.361842,0.0851 -0.491317,0.18 -0.0579,0.0424 0.0579,0.13757 0,0.18 -0.115803,0.0848 -0.37551,-0.0849 -0.491315,0 -0.508274,0.37241 0.776711,-0.0146 -0.245658,0.35999 -0.07324,0.0268 -0.172417,-0.0268 -0.245658,0 -0.103579,0.0379 -0.142079,0.14205 -0.245658,0.18 -0.07324,0.0268 -0.187757,-0.0424 -0.245658,0 -0.508275,0.37242 0.776712,-0.0146 -0.245659,0.35999 -0.33885,0.12414 -0.219733,-0.21799 -0.491316,0.18 -0.03662,0.0537 0.0579,0.13757 0,0.17999 -0.129472,0.0949 -0.317609,0.13757 -0.491315,0.18 -0.07769,0.019 -0.187757,-0.0424 -0.245658,0 -0.0579,0.0424 0.03662,0.12633 0,0.18 -0.511185,0.7491 0.01696,-0.19243 -0.491317,0.17999 -0.305457,0.22381 -0.245658,0.45257 -0.245658,0.71999 0,0.06 0.03662,0.12633 0,0.18 -0.05179,0.0759 -0.163772,0.11999 -0.245658,0.17999 0,0.18 0.04039,0.36245 0,0.53999 -0.04257,0.18715 -0.174519,0.35756 -0.245658,0.53999 -0.09275,0.23787 -0.190152,0.47597 -0.245658,0.71999 -0.02693,0.11837 0.03212,0.24233 0,0.35999 -0.05079,0.18605 -0.209037,0.35217 -0.245658,0.53999 -0.04632,0.23759 0.05385,0.48326 0,0.71999 -0.0301,0.13234 -0.187756,0.23272 -0.245657,0.35999 -0.106767,0.23469 -0.185262,0.4766 -0.24566,0.71999 -0.378418,1.525 -0.185657,1.44827 -0.491315,3.23994 -0.103579,0.60715 -0.399097,1.19184 -0.491316,1.79997 -0.03618,0.23852 0.04063,0.48184 0,0.71998 -0.08376,0.49095 -0.380306,0.95195 -0.491316,1.43998 -0.02692,0.11836 0.02693,0.24163 0,0.35999 -0.406633,1.78767 -0.130891,-0.57683 -0.491317,1.79997 -0.02713,0.17889 0.02713,0.36109 0,0.53999 -0.055,0.36272 -0.190652,0.71725 -0.245658,1.07998 -0.02713,0.1789 0,0.35999 0,0.53999 0,0.23999 0,0.47999 0,0.71998 0,1.07998 0,2.15996 0,3.23995 0,0.59998 0,1.19997 0,1.79996 0,0.19654 0.05296,0.78358 0,0.89999 -0.318899,0.70098 -0.245658,0.0169 -0.245658,0.71998 0,3.11994 0,6.23989 0,9.35983 0,0.89998 0,1.79997 0,2.69995 0,0.12201 0.04122,1.46896 0,1.61997 -0.03591,0.13156 -0.187755,0.23272 -0.245657,0.35999 -0.02589,0.0569 0,0.12 0,0.18 0,0.12 0,0.23999 0,0.35999 0,0.18 0.05958,0.36537 0,0.53999 -0.02809,0.0823 -0.193869,0.10411 -0.245658,0.18 -0.07324,0.10733 0.03212,0.24232 0,0.35999 -0.06621,0.24258 -0.203782,0.47452 -0.245658,0.71999 -0.06094,0.35721 0,0.71999 0,1.07998 0,0.71999 0,1.43997 0,2.15996 0,2.09996 0,4.19992 0,6.29988 0,1.67997 0,3.35994 0,5.03991 0,0.47999 0,0.95998 0,1.43998 0,0.15072 -0.0467,0.7631 0,0.89998 0.04441,0.13015 0.163772,0.24 0.245658,0.35999 0,0.18 -0.04039,0.36244 0,0.53999 0.170394,0.74911 0.224015,0.31242 0.491315,0.89998 0.106768,0.23469 0.163772,0.48 0.245658,0.71999 0.08189,0.24 0.203782,0.47452 0.245658,0.71999 0.04063,0.23814 0,0.47999 0,0.71998 0,0.18 -0.05958,0.36537 0,0.53999 0.02808,0.0823 0.217572,0.0977 0.245658,0.18 0.05958,0.17462 -0.07768,0.36923 0,0.53999 0.02589,0.0569 0.187757,-0.0424 0.245659,0 0.0579,0.0424 -0.0579,0.13757 0,0.18 0.0579,0.0424 0.187756,-0.0424 0.245658,0 0.0579,0.0424 -0.0579,0.13757 0,0.18 0.0579,0.0424 0.172417,-0.0268 0.245658,0 0.103579,0.038 0.142079,0.14204 0.245658,0.17999 0.07324,0.0268 0.187755,-0.0424 0.245658,0 0.129473,0.0949 0.116185,0.26513 0.245657,0.36 0.0579,0.0424 0.187757,-0.0424 0.245658,0 0.0579,0.0424 -0.0579,0.13756 0,0.17999 0.0579,0.0424 0.187757,-0.0424 0.24566,0 0.0579,0.0424 -0.0579,0.13757 0,0.18 0.0579,0.0424 0.187755,-0.0424 0.245657,0 0.0579,0.0424 -0.0579,0.13757 0,0.18 0.0579,0.0424 0.187756,-0.0424 0.245658,0 0.0579,0.0424 -0.0579,0.13756 0,0.17999 0.0579,0.0424 0.187756,-0.0424 0.245658,0 0.0579,0.0424 -0.0579,0.13757 0,0.18 0.0579,0.0424 0.187755,-0.0424 0.245658,0 0.115805,0.0848 -0.115803,0.27514 0,0.35999 0.655089,0 -0.08189,-0.06 0.245658,0.18 0.0579,0.0424 0.245658,-0.06 0.245658,0 0,0.06 -0.245658,-0.06 -0.245658,0 0,0.37455 0.344504,0.0724 0.491317,0.17999 0.0579,0.0424 -0.0579,0.13758 0,0.18 0.115803,0.0848 0.375511,-0.0849 0.491316,0 0.0579,0.0424 -0.0579,0.13757 0,0.18 0.0579,0.0424 0.187755,-0.0424 0.245657,0 0.0579,0.0424 -0.0579,0.13757 0,0.17999 0.115805,0.0849 0.375513,-0.0848 0.491316,0 0.0579,0.0424 -0.0579,0.13758 0,0.18 0.508276,0.37242 -0.01987,-0.5691 0.491317,0.18 0.03662,0.0537 -0.0579,0.13757 0,0.17999 0.115804,0.0849 0.491316,-0.11999 0.491316,0 0,0.06 -0.245658,-0.06 -0.245658,0 0,0.35445 0.847537,0.081 0.982631,0.18 0.0579,0.0424 -0.0579,0.13757 0,0.18 1.73e-4,1.3e-4 0.735861,-2.6e-4 0.736975,0 0.109861,0.0268 0.135796,0.15317 0.245658,0.18 0.155369,0.0379 0.330726,-0.0235 0.491316,0 0.253919,0.0372 0.481551,0.1488 0.736975,0.17999 1.22829,0.15 0.272953,-0.1 1.22829,0 4.52426,0.663 -1.522865,-0.16197 2.21092,0.18 0.33502,0.0307 0.64762,0.14931 0.98263,0.18 0.32502,0.0298 0.65509,0 0.98264,0 0.16377,0 0.33072,-0.0235 0.49131,0 0.25392,0.0372 0.48155,0.1488 0.73698,0.17999 0.32982,0.0403 1.59268,0 1.96526,0 0.16377,0 0.33595,-0.0379 0.49132,0 0.10986,0.0268 0.14208,0.14205 0.24566,0.18 0.10491,0.0384 1.13117,0 1.22829,0 0.65508,0 1.31017,0 1.96526,0 2.70224,0 5.40448,0 8.10672,0 1.80149,0 3.60298,0 5.40447,0 0.5732,0 1.14641,0 1.71961,0 0.16377,0 0.33595,-0.038 0.49131,0 1.47234,0.3596 -0.61701,-0.0461 0.98264,0.53999 0.14648,0.0537 0.33243,-0.0291 0.49131,0 0.36769,0.0673 0.96412,0.4432 1.22829,0.53999 0.23161,0.0848 0.51494,0.0824 0.73698,0.17999 0.1986,0.0873 0.29271,0.27269 0.49131,0.36 0.22205,0.0976 0.50537,0.0951 0.73698,0.17999 1.77267,0.64944 -0.4338,0.0889 1.7196,0.71999 2.07779,0.60897 0.93191,0.12815 3.19356,0.71999 0.58729,0.15369 1.13231,0.38631 1.71961,0.53999 0.56141,0.14691 1.15819,0.21308 1.7196,0.35999 0.5873,0.15369 1.13755,0.37596 1.71961,0.53999 0.48337,0.13622 0.98558,0.2337 1.47395,0.35999 0.90381,0.23373 1.79297,0.49792 2.70224,0.71999 0.89486,0.21857 1.16118,0.0981 1.96526,0.53999 0.13102,0.072 -0.0732,0.25267 0,0.36 0.51118,0.7491 -0.017,-0.19243 0.49131,0.17999 0.24857,0.18213 0.34742,0.72426 0.49132,0.89999 0.17874,0.21827 0.49131,0.35999 0.73697,0.53999 0.1216,0.0891 0.49379,0.3618 0.73698,0.53998 0.16377,0.12001 0.30603,0.25818 0.49131,0.36 0.14648,0.0805 0.33897,0.10558 0.49132,0.18 0.28907,0.1412 0.46569,0.38097 0.73697,0.53999 0.23055,0.13514 0.50643,0.22485 0.73698,0.35999 0.18085,0.10601 0.31046,0.25398 0.49131,0.36 0.23055,0.13513 0.52821,0.20702 0.73698,0.35999 0.12947,0.0949 0.11619,0.26512 0.24566,0.35999 0.41753,0.30594 1.03261,0.43254 1.47395,0.71999 0.51932,0.33823 0.98263,0.71998 1.47394,1.07998 0.16378,0.12 0.29861,0.26586 0.49132,0.35999 0.3047,0.14884 0.7013,0.18822 0.98263,0.35999 0.33763,0.20616 0.50389,0.75968 0.98263,0.89999 0.22809,0.0669 0.50889,-0.0668 0.73698,0 0.21504,0.063 0.31046,0.25398 0.49132,0.35999 0.23054,0.13514 0.50078,0.2302 0.73697,0.35999 0.0926,0.0509 0.1493,0.13293 0.24566,0.18 0.15235,0.0744 0.34483,0.0995 0.49131,0.18 0.18529,0.10182 0.28416,0.2841 0.49132,0.35999 0.14648,0.0537 0.33594,-0.0379 0.49132,0 0.34741,0.0849 0.65509,0.24 0.98263,0.35999 0.16377,0.06 0.33896,0.10558 0.49131,0.18 0.0964,0.047 0.15302,0.12909 0.24566,0.18 0.2362,0.1298 0.50643,0.22485 0.73698,0.35999 1.60231,0.93923 -0.73444,-0.11938 1.22829,0.36 0.28009,0.0684 0.4729,0.26324 0.73697,0.35999 0.0732,0.0269 0.18775,-0.0424 0.24566,0 0.0579,0.0424 -0.0579,0.13757 0,0.18 0.0579,0.0424 0.18775,-0.0424 0.24566,0 0.0579,0.0424 -0.0579,0.13756 0,0.17999 0.1158,0.0849 0.37551,-0.0848 0.49131,0 0.0579,0.0424 -0.0579,0.13757 0,0.18 0.0579,0.0424 0.17242,-0.0269 0.24566,0 0.10358,0.038 0.14208,0.14205 0.24566,0.17999 0.0732,0.0268 0.18775,-0.0424 0.24566,0 0.0579,0.0424 -0.0579,0.13757 0,0.18 0.0579,0.0424 0.16377,0 0.24566,0 0.11582,0 1.21715,-0.008 1.22829,0 0.0579,0.0424 -0.0579,0.13757 0,0.18 0.0246,0.018 0.7124,0.018 0.73697,0 0.36856,-0.27005 0.24565,-0.73857 0.24565,-1.07998 0,-0.42 0,-0.83999 0,-1.25998 0,-0.83998 0,-1.67997 0,-2.51995 0,-0.15276 0.0452,-0.98076 0,-1.07998 -0.0366,-0.0805 -0.19386,-0.10411 -0.24565,-0.18 -1.18627,-1.73839 0.31648,0.33568 -0.24566,-0.89998 -0.0366,-0.0805 -0.20904,-0.0995 -0.24565,-0.18 -0.0518,-0.11384 0.0321,-0.24232 0,-0.35999 -0.0508,-0.18605 -0.20309,-0.35284 -0.24566,-0.53999 -0.0404,-0.17755 0.0912,-0.37287 0,-0.53999 -0.086,-0.15757 -0.35236,-0.22423 -0.49132,-0.36 -0.13286,-0.1298 -0.64462,-0.9108 -0.73697,-1.07998 -0.0962,-0.17616 -0.0903,-0.3882 -0.24566,-0.53999 -0.10986,-0.10733 -0.38975,-0.0684 -0.49132,-0.17999 -0.0908,-0.0999 0.0397,-0.24358 0,-0.36 -0.0444,-0.13015 -0.16378,-0.23999 -0.24566,-0.35999 -0.0819,-0.12 -0.14409,-0.24836 -0.24565,-0.35999 -0.0642,-0.0706 -0.18143,-0.1094 -0.24566,-0.18 -0.20314,-0.22326 -0.28818,-0.49673 -0.49132,-0.71999 -0.0642,-0.0706 -0.20904,-0.0995 -0.24566,-0.17999 -0.0518,-0.11384 0.0518,-0.24616 0,-0.36 -0.0732,-0.16099 -0.36284,-0.21879 -0.49131,-0.35999 -0.10157,-0.11163 -0.16377,-0.24 -0.24566,-0.36 -0.0819,-0.11999 -0.20125,-0.22983 -0.24566,-0.35999 -0.0397,-0.11641 0.0518,-0.24615 0,-0.35999 -0.0367,-0.0805 -0.18142,-0.1094 -0.24566,-0.18 -0.10156,-0.11163 -0.17765,-0.23542 -0.24565,-0.35999 -0.0962,-0.17616 -0.11243,-0.37729 -0.24566,-0.53999 -0.11917,-0.14552 -0.37216,-0.21447 -0.49132,-0.35999 -0.13323,-0.1627 -0.14365,-0.3656 -0.24566,-0.53999 -0.14425,-0.24663 -0.32754,-0.47999 -0.49131,-0.71999 -0.0819,-0.12 -0.18776,-0.23271 -0.24566,-0.36 -0.0488,-0.10732 0,-0.90558 0,-1.07997 0,-0.95998 0,-1.91997 0,-2.87995 0,-0.71999 0,-1.43997 0,-2.15996 0,-0.3 -0.037,-0.60122 0,-0.89999 0.0451,-0.36346 0.19065,-0.71725 0.24566,-1.07997 0.0899,-0.59268 -0.0899,-1.2073 0,-1.79997 0.0202,-0.13334 0.21555,-0.22766 0.24565,-0.36 0.0539,-0.23673 -0.0362,-0.48146 0,-0.71998 0.0461,-0.30407 0.21099,-0.59511 0.24566,-0.89998 0.0476,-0.41855 -0.0811,-0.84421 0,-1.25998 0.0843,-0.43241 0.39331,-0.82912 0.49132,-1.25998 0.0673,-0.29591 -0.0452,-0.60182 0,-0.89998 0.0746,-0.49174 0.39582,-0.95019 0.49132,-1.43998 0.0579,-0.29698 0,-0.59998 0,-0.89998 0,-0.12 -0.0321,-0.24232 0,-0.35999 0.0508,-0.18605 0.18285,-0.35593 0.24565,-0.53999 0.0199,-0.0582 -0.0199,-0.12179 0,-0.18 0.0628,-0.18407 0.19488,-0.35394 0.24566,-0.53999 0.0321,-0.11767 -0.0397,-0.24358 0,-0.35999 0.0444,-0.13016 0.20125,-0.22984 0.24566,-0.35999 0.0397,-0.11642 0,-0.24 0,-0.36 0,-0.35999 0,-0.71999 0,-1.07998 0,-0.18 0,-0.35999 0,-0.53999 0,-0.12 0.0397,-0.24358 0,-0.35999 -0.0444,-0.13016 -0.18776,-0.23272 -0.24566,-0.36 -0.3522,-0.77419 -0.64724,-1.56176 -0.98263,-2.33996 -0.15595,-0.36184 -0.35505,-0.71388 -0.49132,-1.07997 -0.10986,-0.29516 -0.15508,-0.60134 -0.24566,-0.89999 -0.0732,-0.24149 -0.16377,-0.47999 -0.24565,-0.71998 -0.0819,-0.24 -0.0947,-0.49873 -0.24566,-0.71999 -0.10358,-0.15179 -0.41808,-0.199 -0.49132,-0.36 -0.12283,-0.26999 -0.55273,-2.11496 -0.73697,-2.69994 -0.15184,-0.4821 -0.31365,-0.96265 -0.49132,-1.43998 -0.13626,-0.36609 -0.34904,-0.71511 -0.49131,-1.07998 -0.0928,-0.23786 -0.17945,-0.47741 -0.24566,-0.71998 -0.0168,-0.0616 0.0251,-0.52158 0,-0.54 -0.0579,-0.0424 -0.18776,0.0424 -0.24566,0 -0.1158,-0.0849 0.0732,-0.25266 0,-0.35999 -0.14739,-0.21599 -0.58958,-0.32399 -0.73697,-0.53999 -0.0983,-0.14399 0.0983,-0.39599 0,-0.53999 -0.0518,-0.0759 -0.19387,-0.1041 -0.24566,-0.17999 -0.0366,-0.0537 0.0579,-0.13758 0,-0.18 -0.0579,-0.0424 -0.18776,0.0424 -0.24566,0 -0.0502,-0.0368 0.0487,-0.46862 0,-0.53999 -0.0518,-0.0759 -0.19387,-0.10411 -0.24566,-0.18 -0.0367,-0.0537 0.0579,-0.13757 0,-0.17999 -0.0579,-0.0424 -0.18776,0.0424 -0.24566,0 -0.1158,-0.0849 0.0732,-0.25267 0,-0.36 -0.0518,-0.0759 -0.19387,-0.1041 -0.24566,-0.17999 -0.0732,-0.10733 0.0733,-0.25267 0,-0.36 -0.0518,-0.0759 -0.19387,-0.1041 -0.24565,-0.18 -0.0367,-0.0537 0.0366,-0.12632 0,-0.17999 -0.0518,-0.0759 -0.19387,-0.1041 -0.24566,-0.18 -0.0732,-0.10733 0.1158,-0.27514 0,-0.35999 -0.0579,-0.0424 -0.18775,0.0424 -0.24566,0 -0.0579,-0.0424 0.0366,-0.12633 0,-0.18 -0.0518,-0.0759 -0.19387,-0.1041 -0.24566,-0.18 -0.0366,-0.0537 0.0579,-0.13756 0,-0.17999 -0.0579,-0.0424 -0.18776,0.0424 -0.24566,0 -0.1158,-0.0848 0.11581,-0.27514 0,-0.35999 -0.0579,-0.0424 -0.20903,0.0537 -0.24565,0 -0.0732,-0.10734 0,-0.24 0,-0.36 0,-0.06 0.0579,-0.13757 0,-0.17999 -0.40943,-0.3 -0.24566,0.65998 -0.24566,-0.36 0,-0.06 0,-0.12 0,-0.17999 0,-0.06 0.0367,-0.12634 0,-0.18 -0.0518,-0.0759 -0.19387,-0.1041 -0.24566,-0.18 -0.0367,-0.0537 0.0366,-0.12633 0,-0.18 -0.0518,-0.0759 -0.19387,-0.1041 -0.24566,-0.17999 -0.0366,-0.0537 0.0367,-0.12633 0,-0.18 -0.0518,-0.0759 -0.19386,-0.1041 -0.24566,-0.18 -0.0666,-0.0976 0.0672,-0.67073 0,-0.71998 -0.0579,-0.0424 -0.20903,0.0537 -0.24565,0 -0.0732,-0.10733 0.0518,-0.24615 0,-0.36 -0.0366,-0.0805 -0.20904,-0.0995 -0.24566,-0.17999 -0.0374,-0.0823 0.0547,-0.63989 0,-0.71999 -0.0518,-0.0759 -0.19387,-0.1041 -0.24566,-0.17999 -0.0732,-0.10733 0.0732,-0.25267 0,-0.36 -0.0518,-0.0759 -0.19387,-0.1041 -0.24566,-0.17999 -0.0732,-0.10733 0.0732,-0.25267 0,-0.36 -0.0518,-0.0759 -0.19386,-0.1041 -0.24566,-0.18 -0.0983,-0.14399 0.0983,-0.39599 0,-0.53999 -0.0518,-0.0759 -0.19386,-0.1041 -0.24565,-0.17999 -0.0366,-0.0537 0.0366,-0.12633 0,-0.18 -0.0518,-0.0759 -0.19387,-0.1041 -0.24566,-0.18 -0.0732,-0.10733 0.1158,-0.27514 0,-0.35999 -0.0579,-0.0424 -0.18776,0.0424 -0.24566,0 -0.0579,-0.0424 0.0579,-0.13757 0,-0.18 -0.0579,-0.0424 -0.18775,0.0424 -0.24566,0 -0.0579,-0.0424 0.0579,-0.13757 0,-0.17999 -0.0579,-0.0424 -0.18775,0.0424 -0.24566,0 -0.0579,-0.0424 0.0579,-0.13757 0,-0.18 -0.0579,-0.0424 -0.18775,0.0424 -0.24566,0 -0.0579,-0.0424 0.0579,-0.13757 0,-0.17999 -0.0579,-0.0424 -0.18775,0.0424 -0.24565,0 -0.12283,-0.09 0.12283,-0.45 0,-0.53999 -0.11581,-0.0849 -0.37551,0.0848 -0.49132,0 -0.1158,-0.0849 0.11581,-0.27515 0,-0.36 -0.0579,-0.0424 -0.18775,0.0424 -0.24566,0 -0.0579,-0.0424 -0.0819,-0.18 0,-0.18 0.0819,0 0,0.24 0,0.18 0,-1.01998 0.16378,-0.06 -0.24566,-0.35999 -0.0579,-0.0424 0.0579,-0.13757 0,-0.18 -0.0579,-0.0424 -0.18775,0.0424 -0.24565,0 -0.32755,-0.23999 0.40943,-0.18 -0.24566,-0.18"
       id="path5437"
       inkscape:connector-curvature="0" />
    <path
       style="fill:none;stroke:#000000;stroke-width:0.31432706;stroke-linecap:butt;stroke-linejoin:miter;stroke-miterlimit:4;stroke-dasharray:none;stroke-opacity:1"
       d="m 57.385953,182.56539 c 0,0.24 0,0.48 0,0.71999 0.0819,0 0.18776,-0.0424 0.24566,0 0.12948,0.0949 0.11619,0.26513 0.24566,0.35999 0.12948,0.0949 0.36185,0.0851 0.49132,0.18 0.12947,0.0949 0.16377,0.24 0.24565,0.35999 0.24566,0.18 0.45905,0.38726 0.73698,0.54 0.38197,0.20991 0.80911,0.37246 1.22829,0.53998 0.48223,0.19274 1.04501,0.28856 1.47395,0.54 0.40943,0.23999 0.57983,0.65403 0.98263,0.89998 0.59346,0.36236 1.32249,0.58601 1.96526,0.89998 1.93009,0.9428 3.70387,2.07538 5.89579,2.69995 0.79679,0.22704 1.63948,0.35578 2.45658,0.53999 0.16628,0.0375 3.85078,0.99285 5.15882,1.07998 0.4893,0.0326 0.98933,-0.0592 1.47395,0 0.0808,0.01 -0.0579,0.13757 0,0.18 0.0579,0.0424 0.18776,-0.0424 0.24566,0 0.0579,0.0424 -0.0579,0.13757 0,0.18 0.0579,0.0424 0.18776,-0.0424 0.24566,0 0.0579,0.0424 -0.0579,0.13757 0,0.17999 0.0579,0.0424 0.18776,-0.0424 0.24566,0 0.0579,0.0424 -0.0579,0.13757 0,0.18 0.0579,0.0424 0.18776,-0.0424 0.24566,0 0.0579,0.0424 -0.0579,0.13757 0,0.18 0.0579,0.0424 0.18775,-0.0424 0.24565,0 0.11581,0.0848 -0.0732,0.25266 0,0.35999 0.0518,0.0759 0.19388,0.1041 0.24566,0.18 0.0367,0.0537 -0.0366,0.12633 0,0.17999 0.0518,0.0759 0.19387,0.10411 0.24566,0.18 0.0428,0.0627 0,0.94785 0,1.07998 0,0.16898 0.0469,0.79685 0,0.89998 -0.0367,0.0805 -0.20903,0.0995 -0.24566,0.18 -0.0518,0.11384 0.0397,0.24358 0,0.35999 -0.0444,0.13016 -0.20975,0.22844 -0.24566,0.36 -0.0964,0.353 0.11917,0.73073 0,1.07998 -0.0281,0.0823 -0.20903,0.0995 -0.24565,0.17999 -0.0759,0.16675 0.0785,0.72751 0,0.89999 -0.0579,0.12727 -0.18776,0.23271 -0.24566,0.35999 -0.0804,0.17678 0.0833,0.95785 0,1.07998 -0.0367,0.0537 -0.18776,-0.0424 -0.24566,0 -0.1158,0.0849 0.0732,0.25266 0,0.35999 -0.37458,0.54891 -0.19475,-0.3292 -0.49132,0.53999 -0.0542,0.1588 0.0701,0.56579 0,0.71999 -0.0579,0.12728 -0.18776,0.23272 -0.24565,0.35999 -0.0259,0.0569 0.0366,0.12633 0,0.18 -0.0518,0.0759 -0.19387,0.1041 -0.24566,0.18 -0.0487,0.0714 0.0502,0.50319 0,0.53999 -0.0579,0.0424 -0.18776,-0.0424 -0.24566,0 -0.11581,0.0848 0.1158,0.27514 0,0.35999 -0.0579,0.0424 -0.18775,-0.0424 -0.24566,0 -0.1158,0.0848 0.11581,0.27514 0,0.35999 -0.0579,0.0424 -0.18775,-0.0424 -0.24566,0 -0.0502,0.0368 0.0487,0.46863 0,0.53999 -0.14739,0.216 -0.58957,0.324 -0.73697,0.53999 -0.0666,0.0976 0.0672,0.67074 0,0.71999 -0.0579,0.0424 -0.18775,-0.0424 -0.24566,0 -0.0579,0.0424 0.0366,0.12633 0,0.18 -0.0518,0.0759 -0.19387,0.1041 -0.24566,0.17999 -0.0732,0.10733 0.11581,0.27515 0,0.36 -0.0579,0.0424 -0.18775,-0.0424 -0.24566,0 -0.0579,0.0424 0.0579,0.13757 0,0.17999 -0.0579,0.0424 -0.16377,0 -0.24565,0 0,0.06 0.0366,0.12634 0,0.18 -0.0518,0.0759 -0.16378,0.24 -0.24566,0.18 -0.0819,-0.06 0.24566,-0.26485 0.24566,-0.18 0,0.13416 -0.16378,0.24 -0.24566,0.35999"
       id="path5441"
       inkscape:connector-curvature="0" />
    <path
       style="fill:none;stroke:#000000;stroke-width:0.31432706;stroke-linecap:butt;stroke-linejoin:miter;stroke-miterlimit:4;stroke-dasharray:none;stroke-opacity:1"
       d="m 13.658824,249.16417 c 0.327544,0.06 0.647616,0.14931 0.982633,0.17999 0.568775,0.0521 1.146405,0 1.719606,0 0.900746,0 1.801493,0 2.702238,0 3.275441,0 6.550882,0 9.826322,0 1.39206,0 2.78413,0 4.17619,0 0.49131,0 0.98263,0 1.47395,0 0.24565,0 0.49281,0.0199 0.73697,0 3.15225,-0.25663 0.47788,0.003 1.96526,-0.35999 0.13296,-0.0325 0.89895,0 0.98264,0 0.81886,0 1.63772,0 2.45658,0 1.31017,0 2.62035,0 3.93053,0 0.0596,0 0.72907,-0.006 0.73697,0 0.0579,0.0424 -0.0366,0.12633 0,0.18 0.0518,0.0759 0.19387,0.1041 0.24566,0.17999 0.30252,0.44333 -0.71308,-0.16248 0.24566,0.53999 0.0579,0.0424 0.18775,-0.0424 0.24565,0 0.12948,0.0949 0.18776,0.23272 0.24566,0.36 0.0259,0.0569 -0.0579,0.13757 0,0.17999 0.50828,0.37243 -0.0199,-0.5691 0.49132,0.18 0.21743,0.31864 -0.3654,0.0615 0.24566,0.36 0.15235,0.0744 0.38975,0.0684 0.49131,0.17999 0.0909,0.0999 -0.0397,0.24358 0,0.36 0.29657,0.86919 0.11674,-0.009 0.49132,0.53998 0.1158,0.1697 0.14365,0.3656 0.24566,0.53999 0.21638,0.36995 0.53296,0.70629 0.73697,1.07998 0.0962,0.17617 0.12985,0.37029 0.24566,0.54 0.0518,0.0759 0.18142,0.10939 0.24566,0.17999 0.20331,0.22345 0.41141,0.66581 0.49131,0.89999 0.0199,0.0582 0,0.11999 0,0.17999 0,0.29999 -0.0673,0.60407 0,0.89998 0.0426,0.18716 0.20309,0.35284 0.24566,0.53999 0.0404,0.17755 -0.0222,0.36074 0,0.53999 0.0598,0.48175 0.18589,0.95824 0.24566,1.43998 0.0371,0.29876 0,0.59999 0,0.89998 0,0.42 0,0.83999 0,1.25998 0,0.0613 -0.0443,0.62257 0,0.71999 0.0579,0.12727 0.18775,0.23271 0.24566,0.35999 0.0259,0.0569 0,0.11999 0,0.18 0.0819,0.17999 0.12985,0.37028 0.24565,0.53999 0.0518,0.0759 0.21758,0.0977 0.24566,0.17999 0.0596,0.17462 -0.0596,0.36537 0,0.53999 0.0281,0.0823 0.18142,0.1094 0.24566,0.18 0.54123,0.0906 0.12985,0.37029 0.24566,0.53999 0.0518,0.0759 0.20904,0.0995 0.24566,0.17999 3.4e-4,9.6e-4 -1.7e-4,0.53982 0,0.54 0.0579,0.0424 0.18775,-0.0424 0.24566,0 0.01,0.007 0,0.65388 0,0.71998"
       id="path5443"
       inkscape:connector-curvature="0" />
    <text
       xml:space="preserve"
       style="font-style:normal;font-weight:normal;font-size:5.88783693px;line-height:1.25;font-family:sans-serif;letter-spacing:0px;word-spacing:0px;fill:#000000;fill-opacity:1;stroke:none;stroke-width:0.14719592"
       x="39.448719"
       y="215.38358"
       id="text5447"
       transform="scale(1.1682432,0.85598617)"><tspan
         sodipodi:role="line"
         id="tspan5445"
         x="39.448719"
         y="215.38358"
         style="stroke-width:0.14719592">Start</tspan></text>
  </g>
</svg>
